PathFileType	4	(X/Y/Z)	C:/Users/opensim2020/Desktop/walking_exp_matlab/subject01_walking13_straight_03.trc	
DataRate	CameraRate	NumFrames	NumMarkers	Units	OrigDataRate	OrigDataStartFrame	OrigNumFrames	
100.00	100.00	6	42	mm	100.00	1679	128	
Frame#	Time	LFHD			RFHD			LBHD			RBHD			C7			T10			CLAV			STRN			RBAK			LSHO			LUPA			LELB			LFRM			LWRA			LWRB			LFIN			RSHO			RUPA			RELB			RFRM			RWRA			RWRB			RFIN			LASI			RASI			LPSI			RPSI			LTHI			LKNE			LTIB			LANK			LHEE			LTOE			RTHI			RKNE			RTIB			RANK			RHEE			RTOE			*39			*40			*41			
		X1	Y1	Z1	X2	Y2	Z2	X3	Y3	Z3	X4	Y4	Z4	X5	Y5	Z5	X6	Y6	Z6	X7	Y7	Z7	X8	Y8	Z8	X9	Y9	Z9	X10	Y10	Z10	X11	Y11	Z11	X12	Y12	Z12	X13	Y13	Z13	X14	Y14	Z14	X15	Y15	Z15	X16	Y16	Z16	X17	Y17	Z17	X18	Y18	Z18	X19	Y19	Z19	X20	Y20	Z20	X21	Y21	Z21	X22	Y22	Z22	X23	Y23	Z23	X24	Y24	Z24	X25	Y25	Z25	X26	Y26	Z26	X27	Y27	Z27	X28	Y28	Z28	X29	Y29	Z29	X30	Y30	Z30	X31	Y31	Z31	X32	Y32	Z32	X33	Y33	Z33	X34	Y34	Z34	X35	Y35	Z35	X36	Y36	Z36	X37	Y37	Z37	X38	Y38	Z38	X39	Y39	Z39	X40	Y40	Z40	X41	Y41	Z41	X42	Y42	Z42	

81	0.800	-1089.74304	232.99236	1673.90527	-976.11200	245.20532	1673.09033	-1085.41370	114.56005	1636.06335	-965.03064	124.52539	1633.94556	-1051.75171	68.61634	1439.66931	-1045.93286	24.60760	1145.19128	-1050.17249	210.39912	1366.18103	-1060.00732	247.67519	1211.11499	-978.65710	5.50409	1244.71375	-1209.52661	149.83617	1407.40820	-1302.36035	103.08202	1234.91064	-1316.60400	81.00698	1082.94702	-1336.95679	144.34691	982.54108	-1312.23462	248.98268	893.57190	-1338.23987	199.22794	873.41229	-1347.96667	263.68118	821.70502	-899.43475	144.30984	1392.04333	-798.51251	68.36655	1202.00110	-788.87842	56.51418	1076.51709	-761.51361	87.40586	957.29370	-787.72510	170.95218	846.41132	-747.12817	129.81691	842.87524	-741.80432	178.04692	777.17023	-1159.11987	200.39629	941.85156	-941.69214	207.57542	941.31464	-1102.13562	16.49072	946.55493	-957.19171	21.36531	950.69446	-1234.83813	231.33374	618.40961	-1232.41760	243.26016	486.19376	-1231.76648	102.10854	371.80286	-1177.70325	-54.43757	220.84633	-1115.45557	-93.62504	229.86433	-1190.97693	-3.45467	81.70313	-902.62482	170.02785	603.72363	-938.66791	188.80080	447.09402	-935.70770	138.73967	277.03357	-995.65710	108.79986	76.22506	-1043.81177	55.66433	39.89925	-1006.93011	248.23874	37.30074	-997.59589	235.82027	1708.64502	-3101.87524	1973.11011	1023.45752	-3140.70093	2012.58972	1022.15570 
82	0.810	-1089.97900	245.21407	1674.00354	-976.20465	257.48727	1673.25085	-1085.56018	126.73868	1636.50366	-965.20135	136.65671	1634.55127	-1051.56787	80.01861	1440.15295	-1045.43530	35.83944	1145.77783	-1050.04590	221.83995	1366.55408	-1059.58838	258.90088	1211.44971	-977.70630	16.84774	1245.59375	-1209.28992	161.08199	1407.69751	-1301.80029	112.97572	1235.31177	-1314.77600	88.52269	1083.61206	-1335.52563	147.95088	981.11768	-1311.00427	249.44423	887.96283	-1336.84827	198.77911	869.93988	-1346.69653	261.00342	815.45532	-899.31836	155.83116	1392.85852	-797.26740	81.51038	1202.81812	-787.23138	70.78806	1076.98047	-760.66846	105.51283	958.54865	-788.41730	192.37054	850.55511	-747.23425	151.80980	845.63318	-742.70386	202.27809	781.52637	-1157.99780	212.13242	942.62634	-940.11279	218.02498	941.58929	-1102.78052	27.89133	947.52698	-957.80615	31.84911	951.68781	-1234.57397	248.21962	621.23590	-1231.87964	262.35321	489.26730	-1230.82959	123.84503	371.62350	-1177.06689	-27.65037	215.69424	-1115.15198	-68.25190	222.18956	-1191.29553	31.04608	80.31725	-902.26892	175.65953	603.80884	-937.89771	192.06488	446.68701	-935.42816	139.82097	277.02228	-995.68964	108.79773	76.46829	-1044.04663	55.79869	40.51661	-1006.86456	248.47920	37.27219	-997.83661	248.15965	1708.86096	-3101.95435	1973.15442	1023.42090	-3140.72363	2012.56213	1022.18378 
83	0.820	-1090.09314	257.51971	1673.99792	-976.45404	269.66241	1673.22705	-1085.88513	138.86137	1636.81311	-965.45386	148.69847	1635.00586	-1051.37939	91.52383	1440.53455	-1044.98413	46.99975	1146.21399	-1049.85693	233.23660	1366.74939	-1059.16943	270.13553	1211.67493	-976.87457	27.64329	1246.40210	-1209.14893	172.39079	1407.87048	-1301.24792	122.76269	1235.52832	-1313.03979	96.15557	1084.17310	-1334.00659	151.74382	979.69904	-1309.60840	249.75598	882.61908	-1335.46191	198.35559	866.67999	-1345.51672	258.36639	809.69653	-899.12964	167.44473	1393.56006	-796.07117	94.69133	1203.66956	-785.57788	84.73729	1077.46814	-759.96240	123.30148	959.78583	-788.83484	213.09583	854.68738	-747.49506	173.71233	848.41534	-743.73450	226.23666	786.09106	-1156.55823	223.73517	943.50000	-938.88879	228.26056	941.63226	-1103.24915	39.26767	948.35187	-958.52307	42.21492	952.19257	-1234.36804	264.74094	623.85297	-1231.21655	281.01129	492.22238	-1229.82532	145.68387	370.66684	-1176.65857	-0.17404	209.53334	-1114.86292	-42.13985	213.49442	-1191.58606	66.46622	78.33991	-901.96857	181.40302	603.70404	-937.72693	195.20821	446.39520	-935.23547	140.91403	277.18484	-995.64996	109.18824	76.85066	-1044.34766	56.12888	41.21759	-1006.84961	248.55862	37.14087	-998.57483	260.25818	1708.68591	-3102.02515	1973.06641	1023.41711	-3140.81543	2012.45276	1022.07892 
84	0.830	-1090.53979	269.71378	1673.79163	-976.77094	281.87814	1673.29712	-1086.19336	151.01698	1636.95569	-965.71112	160.80281	1635.40833	-1051.35339	102.99724	1440.73181	-1044.59509	58.28494	1146.48828	-1049.70557	244.62851	1366.82654	-1058.68347	281.43909	1211.72498	-976.10712	39.20536	1246.90405	-1209.08032	183.71300	1407.80627	-1300.68420	132.37981	1235.56055	-1311.31616	103.89294	1084.58447	-1332.56079	155.70915	978.33197	-1308.47253	250.17458	877.48047	-1334.19312	198.00223	863.62439	-1344.26062	255.80029	804.30292	-899.03723	179.08539	1394.11511	-794.99939	107.38496	1204.31982	-784.04919	98.53172	1077.75134	-759.13708	141.17741	961.31396	-789.53827	234.43089	859.87823	-747.86426	195.27371	851.45709	-744.85620	250.07948	791.18573	-1155.38831	235.27818	943.95624	-937.72937	238.44498	941.44812	-1103.67151	50.52693	948.95459	-959.16394	52.95504	952.58728	-1234.32373	281.07968	626.32898	-1230.32141	299.37213	494.90173	-1229.04553	167.70065	369.04074	-1176.31018	27.71709	202.24748	-1114.63599	-15.01862	203.64082	-1192.16431	102.06821	75.98838	-901.77533	187.48988	603.51190	-936.87714	198.33466	446.00067	-935.02887	142.23958	277.48645	-995.93683	109.34560	77.13953	-1044.56763	55.40906	42.44769	-1006.84747	248.89003	37.13879	-998.57825	272.70279	1708.88391	-3101.88086	1973.15417	1023.51251	-3140.80859	2012.50073	1022.05048 
85	0.840	-1090.91675	281.92337	1673.57349	-977.01550	293.99963	1673.15393	-1086.56445	163.09933	1636.97498	-966.11096	172.82393	1635.59668	-1051.21631	114.65990	1440.84558	-1044.17981	69.45683	1146.67578	-1049.65552	256.07730	1366.74426	-1058.26636	292.66977	1211.64099	-975.52350	50.77793	1247.20544	-1209.06250	195.04227	1407.54163	-1300.12830	141.93140	1235.41333	-1309.72388	111.81781	1084.86475	-1331.22266	159.79863	977.02484	-1307.20447	250.62325	872.49213	-1333.05774	197.79869	860.84479	-1343.12195	253.38936	799.29956	-899.00372	190.64058	1394.45813	-794.00641	119.85626	1204.83264	-782.50977	112.14042	1077.92798	-758.55609	158.58745	962.49091	-790.19171	254.84439	864.32562	-748.32092	216.78127	854.86841	-746.02350	273.98801	796.60638	-1154.38684	246.78146	944.29736	-937.05200	248.35439	941.01288	-1104.12964	61.77919	949.35004	-959.60016	63.42445	952.79669	-1234.34985	297.16846	628.58362	-1229.51208	317.39355	497.49091	-1228.44177	189.86176	366.72775	-1176.01111	56.40799	194.25380	-1114.42163	13.07908	192.87187	-1193.09949	137.78751	73.44942	-901.61328	193.82852	603.28485	-936.46313	201.54814	445.59412	-934.89368	144.08218	277.73401	-996.08081	109.88731	77.73669	-1045.07019	55.72727	43.13688	-1006.82843	249.01358	36.94702	-999.41681	284.71823	1708.53174	-3101.90063	1973.13477	1023.47168	-3140.77783	2012.49792	1022.06323 
86	0.850	-1091.42224	294.10880	1673.17151	-977.81812	305.93097	1672.94507	-1087.02686	175.15617	1636.86938	-966.60657	184.78755	1635.72827	-1051.37500	126.26315	1440.76892	-1043.85339	80.74957	1146.70569	-1049.55859	267.50595	1366.54578	-1057.83948	303.98047	1211.38989	-975.11255	62.34051	1247.29846	-1209.15759	206.41725	1407.22437	-1299.41931	151.48463	1235.04553	-1308.18518	119.85868	1085.03479	-1329.92957	164.14799	975.81897	-1306.15833	251.11223	867.93744	-1332.08740	197.85854	858.26263	-1342.13916	251.18846	794.66370	-898.95172	202.34203	1394.68213	-793.06549	132.17953	1205.25525	-781.03699	125.67554	1077.99634	-757.98328	176.05304	963.81909	-791.09137	275.42175	869.35815	-748.79688	238.11284	858.36566	-747.27655	297.23941	802.01233	-1153.83020	258.29471	944.42169	-935.89746	258.85733	940.63843	-1104.47754	72.95834	949.62579	-960.04974	73.80953	952.76959	-1234.31323	313.01514	630.60468	-1228.49329	335.08908	499.67926	-1227.90576	212.16829	363.70883	-1175.84180	85.75974	185.73596	-1114.14673	42.15518	181.40729	-1194.28870	174.21594	70.67505	-901.49341	200.19171	602.93408	-936.66339	204.94987	445.08939	-934.77405	146.07927	278.18777	-996.27545	110.12183	78.16868	-1045.19495	55.90678	44.10524	-1006.83905	249.21243	36.90568	-999.48383	297.14322	1708.51624	-3101.91406	1973.22839	1023.46655	-3140.63965	2012.53674	1022.08575 
